<svg xmlns="http://www.w3.org/2000/svg" width="1160" height="580" viewBox="0 0 1160 580">
<style>text{font-family:-apple-system,BlinkMacSystemFont,Segoe UI,Roboto,Arial,sans-serif;fill:#0f172a} .muted{fill:#475569}</style>
<rect x="0" y="0" width="100%" height="100%" fill="#f8fafc"/>
<text x="580" y="36" font-size="22" text-anchor="middle">Resolution Groups: Matches by Engine</text>
<text x="32" y="260" font-size="14" text-anchor="middle" transform="rotate(-90 32,260)" class="muted">match count</text>
<line x1="90" y1="70" x2="90" y2="450" stroke="#334155" stroke-width="2"/>
<line x1="90" y1="450" x2="1120" y2="450" stroke="#334155" stroke-width="2"/>
<line x1="90" y1="450.0" x2="1120" y2="450.0" stroke="#e2e8f0" stroke-width="1"/>
<text x="80" y="455.0" font-size="12" text-anchor="end" class="muted">0.0</text>
<line x1="90" y1="374.0" x2="1120" y2="374.0" stroke="#e2e8f0" stroke-width="1"/>
<text x="80" y="379.0" font-size="12" text-anchor="end" class="muted">4.6</text>
<line x1="90" y1="298.0" x2="1120" y2="298.0" stroke="#e2e8f0" stroke-width="1"/>
<text x="80" y="303.0" font-size="12" text-anchor="end" class="muted">9.2</text>
<line x1="90" y1="222.0" x2="1120" y2="222.0" stroke="#e2e8f0" stroke-width="1"/>
<text x="80" y="227.0" font-size="12" text-anchor="end" class="muted">13.8</text>
<line x1="90" y1="146.0" x2="1120" y2="146.0" stroke="#e2e8f0" stroke-width="1"/>
<text x="80" y="151.0" font-size="12" text-anchor="end" class="muted">18.4</text>
<line x1="90" y1="70.0" x2="1120" y2="70.0" stroke="#e2e8f0" stroke-width="1"/>
<text x="80" y="75.0" font-size="12" text-anchor="end" class="muted">23.0</text>
<text x="227.8" y="474.0" font-size="11" text-anchor="middle" class="muted">800x600</text>
<rect x="122.0" y="417.0" width="25.9" height="33.0" fill="#ea580c" rx="3"/>
<text x="135.0" y="413.0" font-size="10" text-anchor="middle">2.00</text>
<rect x="152.9" y="350.9" width="25.9" height="99.1" fill="#a21caf" rx="3"/>
<text x="165.9" y="346.9" font-size="10" text-anchor="middle">6.00</text>
<rect x="183.9" y="284.8" width="25.9" height="165.2" fill="#db2777" rx="3"/>
<text x="196.8" y="280.8" font-size="10" text-anchor="middle">10.00</text>
<rect x="214.8" y="218.7" width="25.9" height="231.3" fill="#7c3aed" rx="3"/>
<text x="227.8" y="214.7" font-size="10" text-anchor="middle">14.00</text>
<rect x="245.7" y="235.2" width="25.9" height="214.8" fill="#9333ea" rx="3"/>
<text x="258.7" y="231.2" font-size="10" text-anchor="middle">13.00</text>
<rect x="276.6" y="185.7" width="25.9" height="264.3" fill="#2563eb" rx="3"/>
<text x="289.6" y="181.7" font-size="10" text-anchor="middle">16.00</text>
<rect x="307.6" y="169.1" width="25.9" height="280.9" fill="#16a34a" rx="3"/>
<text x="320.5" y="165.1" font-size="10" text-anchor="middle">17.00</text>
<text x="479.2" y="474.0" font-size="11" text-anchor="middle" class="muted">1024x768</text>
<rect x="373.5" y="400.4" width="25.9" height="49.6" fill="#ea580c" rx="3"/>
<text x="386.5" y="396.4" font-size="10" text-anchor="middle">3.00</text>
<rect x="404.4" y="301.3" width="25.9" height="148.7" fill="#a21caf" rx="3"/>
<text x="417.4" y="297.3" font-size="10" text-anchor="middle">9.00</text>
<rect x="435.4" y="284.8" width="25.9" height="165.2" fill="#db2777" rx="3"/>
<text x="448.3" y="280.8" font-size="10" text-anchor="middle">10.00</text>
<rect x="466.3" y="202.2" width="25.9" height="247.8" fill="#7c3aed" rx="3"/>
<text x="479.2" y="198.2" font-size="10" text-anchor="middle">15.00</text>
<rect x="497.2" y="218.7" width="25.9" height="231.3" fill="#9333ea" rx="3"/>
<text x="510.2" y="214.7" font-size="10" text-anchor="middle">14.00</text>
<rect x="528.1" y="185.7" width="25.9" height="264.3" fill="#2563eb" rx="3"/>
<text x="541.1" y="181.7" font-size="10" text-anchor="middle">16.00</text>
<rect x="559.1" y="169.1" width="25.9" height="280.9" fill="#16a34a" rx="3"/>
<text x="572.0" y="165.1" font-size="10" text-anchor="middle">17.00</text>
<text x="730.8" y="474.0" font-size="11" text-anchor="middle" class="muted">1280x720</text>
<rect x="625.0" y="433.5" width="25.9" height="16.5" fill="#ea580c" rx="3"/>
<text x="638.0" y="429.5" font-size="10" text-anchor="middle">1.00</text>
<rect x="655.9" y="301.3" width="25.9" height="148.7" fill="#a21caf" rx="3"/>
<text x="668.9" y="297.3" font-size="10" text-anchor="middle">9.00</text>
<rect x="686.9" y="251.7" width="25.9" height="198.3" fill="#db2777" rx="3"/>
<text x="699.8" y="247.7" font-size="10" text-anchor="middle">12.00</text>
<rect x="717.8" y="218.7" width="25.9" height="231.3" fill="#7c3aed" rx="3"/>
<text x="730.7" y="214.7" font-size="10" text-anchor="middle">14.00</text>
<rect x="748.7" y="235.2" width="25.9" height="214.8" fill="#9333ea" rx="3"/>
<text x="761.7" y="231.2" font-size="10" text-anchor="middle">13.00</text>
<rect x="779.6" y="185.7" width="25.9" height="264.3" fill="#2563eb" rx="3"/>
<text x="792.6" y="181.7" font-size="10" text-anchor="middle">16.00</text>
<rect x="810.6" y="185.7" width="25.9" height="264.3" fill="#16a34a" rx="3"/>
<text x="823.5" y="181.7" font-size="10" text-anchor="middle">16.00</text>
<text x="982.2" y="474.0" font-size="11" text-anchor="middle" class="muted">1920x1080</text>
<rect x="876.5" y="334.3" width="25.9" height="115.7" fill="#ea580c" rx="3"/>
<text x="889.5" y="330.3" font-size="10" text-anchor="middle">7.00</text>
<rect x="907.4" y="202.2" width="25.9" height="247.8" fill="#a21caf" rx="3"/>
<text x="920.4" y="198.2" font-size="10" text-anchor="middle">15.00</text>
<rect x="938.4" y="202.2" width="25.9" height="247.8" fill="#db2777" rx="3"/>
<text x="951.3" y="198.2" font-size="10" text-anchor="middle">15.00</text>
<rect x="969.3" y="119.6" width="25.9" height="330.4" fill="#7c3aed" rx="3"/>
<text x="982.2" y="115.6" font-size="10" text-anchor="middle">20.00</text>
<rect x="1000.2" y="185.7" width="25.9" height="264.3" fill="#9333ea" rx="3"/>
<text x="1013.2" y="181.7" font-size="10" text-anchor="middle">16.00</text>
<rect x="1031.1" y="185.7" width="25.9" height="264.3" fill="#2563eb" rx="3"/>
<text x="1044.1" y="181.7" font-size="10" text-anchor="middle">16.00</text>
<rect x="1062.1" y="136.1" width="25.9" height="313.9" fill="#16a34a" rx="3"/>
<text x="1075.0" y="132.1" font-size="10" text-anchor="middle">19.00</text>
<rect x="90" y="536" width="14" height="14" fill="#ea580c" rx="2"/>
<text x="112" y="548" font-size="12" class="muted">orb</text>
<rect x="260" y="536" width="14" height="14" fill="#a21caf" rx="2"/>
<text x="282" y="548" font-size="12" class="muted">akaze</text>
<rect x="430" y="536" width="14" height="14" fill="#db2777" rx="2"/>
<text x="452" y="548" font-size="12" class="muted">brisk</text>
<rect x="600" y="536" width="14" height="14" fill="#7c3aed" rx="2"/>
<text x="622" y="548" font-size="12" class="muted">kaze</text>
<rect x="770" y="536" width="14" height="14" fill="#9333ea" rx="2"/>
<text x="792" y="548" font-size="12" class="muted">sift</text>
<rect x="940" y="536" width="14" height="14" fill="#2563eb" rx="2"/>
<text x="962" y="548" font-size="12" class="muted">template</text>
<rect x="1110" y="536" width="14" height="14" fill="#16a34a" rx="2"/>
<text x="1132" y="548" font-size="12" class="muted">hybrid</text>
</svg>