<svg xmlns="http://www.w3.org/2000/svg" width="1160" height="580" viewBox="0 0 1160 580">
<style>text{font-family:-apple-system,BlinkMacSystemFont,Segoe UI,Roboto,Arial,sans-serif;fill:#0f172a} .muted{fill:#475569}</style>
<rect x="0" y="0" width="100%" height="100%" fill="#f8fafc"/>
<text x="580" y="36" font-size="22" text-anchor="middle">Resolution Groups: Match Time by Engine</text>
<text x="32" y="260" font-size="14" text-anchor="middle" transform="rotate(-90 32,260)" class="muted">ms/op</text>
<line x1="90" y1="70" x2="90" y2="450" stroke="#334155" stroke-width="2"/>
<line x1="90" y1="450" x2="1120" y2="450" stroke="#334155" stroke-width="2"/>
<line x1="90" y1="450.0" x2="1120" y2="450.0" stroke="#e2e8f0" stroke-width="1"/>
<text x="80" y="455.0" font-size="12" text-anchor="end" class="muted">0.0</text>
<line x1="90" y1="374.0" x2="1120" y2="374.0" stroke="#e2e8f0" stroke-width="1"/>
<text x="80" y="379.0" font-size="12" text-anchor="end" class="muted">376.3</text>
<line x1="90" y1="298.0" x2="1120" y2="298.0" stroke="#e2e8f0" stroke-width="1"/>
<text x="80" y="303.0" font-size="12" text-anchor="end" class="muted">752.6</text>
<line x1="90" y1="222.0" x2="1120" y2="222.0" stroke="#e2e8f0" stroke-width="1"/>
<text x="80" y="227.0" font-size="12" text-anchor="end" class="muted">1129.0</text>
<line x1="90" y1="146.0" x2="1120" y2="146.0" stroke="#e2e8f0" stroke-width="1"/>
<text x="80" y="151.0" font-size="12" text-anchor="end" class="muted">1505.3</text>
<line x1="90" y1="70.0" x2="1120" y2="70.0" stroke="#e2e8f0" stroke-width="1"/>
<text x="80" y="75.0" font-size="12" text-anchor="end" class="muted">1881.6</text>
<text x="227.8" y="474.0" font-size="11" text-anchor="middle" class="muted">800x600</text>
<rect x="122.0" y="443.3" width="25.9" height="6.7" fill="#ea580c" rx="3"/>
<text x="135.0" y="439.3" font-size="10" text-anchor="middle">32.97</text>
<rect x="152.9" y="429.2" width="25.9" height="20.8" fill="#a21caf" rx="3"/>
<text x="165.9" y="425.2" font-size="10" text-anchor="middle">102.85</text>
<rect x="183.9" y="404.6" width="25.9" height="45.4" fill="#db2777" rx="3"/>
<text x="196.8" y="400.6" font-size="10" text-anchor="middle">225.00</text>
<rect x="214.8" y="378.7" width="25.9" height="71.3" fill="#7c3aed" rx="3"/>
<text x="227.8" y="374.7" font-size="10" text-anchor="middle">353.02</text>
<rect x="245.7" y="424.2" width="25.9" height="25.8" fill="#9333ea" rx="3"/>
<text x="258.7" y="420.2" font-size="10" text-anchor="middle">128.00</text>
<rect x="276.6" y="436.5" width="25.9" height="13.5" fill="#2563eb" rx="3"/>
<text x="289.6" y="432.5" font-size="10" text-anchor="middle">66.95</text>
<rect x="307.6" y="434.3" width="25.9" height="15.7" fill="#16a34a" rx="3"/>
<text x="320.5" y="430.3" font-size="10" text-anchor="middle">77.85</text>
<text x="479.2" y="474.0" font-size="11" text-anchor="middle" class="muted">1024x768</text>
<rect x="373.5" y="439.9" width="25.9" height="10.1" fill="#ea580c" rx="3"/>
<text x="386.5" y="435.9" font-size="10" text-anchor="middle">49.78</text>
<rect x="404.4" y="422.2" width="25.9" height="27.8" fill="#a21caf" rx="3"/>
<text x="417.4" y="418.2" font-size="10" text-anchor="middle">137.76</text>
<rect x="435.4" y="395.4" width="25.9" height="54.6" fill="#db2777" rx="3"/>
<text x="448.3" y="391.4" font-size="10" text-anchor="middle">270.58</text>
<rect x="466.3" y="323.2" width="25.9" height="126.8" fill="#7c3aed" rx="3"/>
<text x="479.2" y="319.2" font-size="10" text-anchor="middle">627.85</text>
<rect x="497.2" y="409.8" width="25.9" height="40.2" fill="#9333ea" rx="3"/>
<text x="510.2" y="405.8" font-size="10" text-anchor="middle">199.20</text>
<rect x="528.1" y="427.7" width="25.9" height="22.3" fill="#2563eb" rx="3"/>
<text x="541.1" y="423.7" font-size="10" text-anchor="middle">110.61</text>
<rect x="559.1" y="424.3" width="25.9" height="25.7" fill="#16a34a" rx="3"/>
<text x="572.0" y="420.3" font-size="10" text-anchor="middle">127.21</text>
<text x="730.8" y="474.0" font-size="11" text-anchor="middle" class="muted">1280x720</text>
<rect x="625.0" y="439.1" width="25.9" height="10.9" fill="#ea580c" rx="3"/>
<text x="638.0" y="435.1" font-size="10" text-anchor="middle">54.10</text>
<rect x="655.9" y="418.2" width="25.9" height="31.8" fill="#a21caf" rx="3"/>
<text x="668.9" y="414.2" font-size="10" text-anchor="middle">157.62</text>
<rect x="686.9" y="386.5" width="25.9" height="63.5" fill="#db2777" rx="3"/>
<text x="699.8" y="382.5" font-size="10" text-anchor="middle">314.51</text>
<rect x="717.8" y="312.2" width="25.9" height="137.8" fill="#7c3aed" rx="3"/>
<text x="730.7" y="308.2" font-size="10" text-anchor="middle">682.53</text>
<rect x="748.7" y="405.9" width="25.9" height="44.1" fill="#9333ea" rx="3"/>
<text x="761.7" y="401.9" font-size="10" text-anchor="middle">218.13</text>
<rect x="779.6" y="423.3" width="25.9" height="26.7" fill="#2563eb" rx="3"/>
<text x="792.6" y="419.3" font-size="10" text-anchor="middle">132.03</text>
<rect x="810.6" y="419.4" width="25.9" height="30.6" fill="#16a34a" rx="3"/>
<text x="823.5" y="415.4" font-size="10" text-anchor="middle">151.52</text>
<text x="982.2" y="474.0" font-size="11" text-anchor="middle" class="muted">1920x1080</text>
<rect x="876.5" y="432.0" width="25.9" height="18.0" fill="#ea580c" rx="3"/>
<text x="889.5" y="428.0" font-size="10" text-anchor="middle">88.93</text>
<rect x="907.4" y="391.4" width="25.9" height="58.6" fill="#a21caf" rx="3"/>
<text x="920.4" y="387.4" font-size="10" text-anchor="middle">290.25</text>
<rect x="938.4" y="299.8" width="25.9" height="150.2" fill="#db2777" rx="3"/>
<text x="951.3" y="295.8" font-size="10" text-anchor="middle">743.84</text>
<rect x="969.3" y="119.6" width="25.9" height="330.4" fill="#7c3aed" rx="3"/>
<text x="982.2" y="115.6" font-size="10" text-anchor="middle">1636.19</text>
<rect x="1000.2" y="352.7" width="25.9" height="97.3" fill="#9333ea" rx="3"/>
<text x="1013.2" y="348.7" font-size="10" text-anchor="middle">481.69</text>
<rect x="1031.1" y="387.9" width="25.9" height="62.1" fill="#2563eb" rx="3"/>
<text x="1044.1" y="383.9" font-size="10" text-anchor="middle">307.43</text>
<rect x="1062.1" y="383.9" width="25.9" height="66.1" fill="#16a34a" rx="3"/>
<text x="1075.0" y="379.9" font-size="10" text-anchor="middle">327.49</text>
<rect x="90" y="536" width="14" height="14" fill="#ea580c" rx="2"/>
<text x="112" y="548" font-size="12" class="muted">orb</text>
<rect x="260" y="536" width="14" height="14" fill="#a21caf" rx="2"/>
<text x="282" y="548" font-size="12" class="muted">akaze</text>
<rect x="430" y="536" width="14" height="14" fill="#db2777" rx="2"/>
<text x="452" y="548" font-size="12" class="muted">brisk</text>
<rect x="600" y="536" width="14" height="14" fill="#7c3aed" rx="2"/>
<text x="622" y="548" font-size="12" class="muted">kaze</text>
<rect x="770" y="536" width="14" height="14" fill="#9333ea" rx="2"/>
<text x="792" y="548" font-size="12" class="muted">sift</text>
<rect x="940" y="536" width="14" height="14" fill="#2563eb" rx="2"/>
<text x="962" y="548" font-size="12" class="muted">template</text>
<rect x="1110" y="536" width="14" height="14" fill="#16a34a" rx="2"/>
<text x="1132" y="548" font-size="12" class="muted">hybrid</text>
</svg>