<svg xmlns="http://www.w3.org/2000/svg" width="980" height="520" viewBox="0 0 980 520">
<style>text{font-family:-apple-system,BlinkMacSystemFont,Segoe UI,Roboto,Arial,sans-serif;fill:#0f172a} .muted{fill:#475569}</style>
<rect x="0" y="0" width="100%" height="100%" fill="#f8fafc"/>
<text x="490" y="34" font-size="22" text-anchor="middle">Engine Average Latency (ms/op)</text>
<text x="35" y="248" font-size="14" text-anchor="middle" transform="rotate(-90 35,248)" class="muted">ms/op</text>
<line x1="90" y1="65" x2="90" y2="430" stroke="#334155" stroke-width="2"/>
<line x1="90" y1="430" x2="940" y2="430" stroke="#334155" stroke-width="2"/>
<line x1="90" y1="430.0" x2="940" y2="430.0" stroke="#e2e8f0" stroke-width="1"/>
<text x="80" y="435.0" font-size="12" text-anchor="end" class="muted">0.0</text>
<line x1="90" y1="357.0" x2="940" y2="357.0" stroke="#e2e8f0" stroke-width="1"/>
<text x="80" y="362.0" font-size="12" text-anchor="end" class="muted">189.7</text>
<line x1="90" y1="284.0" x2="940" y2="284.0" stroke="#e2e8f0" stroke-width="1"/>
<text x="80" y="289.0" font-size="12" text-anchor="end" class="muted">379.5</text>
<line x1="90" y1="211.0" x2="940" y2="211.0" stroke="#e2e8f0" stroke-width="1"/>
<text x="80" y="216.0" font-size="12" text-anchor="end" class="muted">569.2</text>
<line x1="90" y1="138.0" x2="940" y2="138.0" stroke="#e2e8f0" stroke-width="1"/>
<text x="80" y="143.0" font-size="12" text-anchor="end" class="muted">758.9</text>
<line x1="90" y1="65.0" x2="940" y2="65.0" stroke="#e2e8f0" stroke-width="1"/>
<text x="80" y="70.0" font-size="12" text-anchor="end" class="muted">948.6</text>
<rect x="110.0" y="363.8" width="98" height="66.2" fill="#2563eb" rx="4"/>
<text x="159.0" y="357.8" font-size="12" text-anchor="middle">172.12</text>
<text x="159.0" y="450.0" font-size="11" text-anchor="middle" class="muted">akaze</text>
<rect x="228.0" y="280.5" width="98" height="149.5" fill="#2563eb" rx="4"/>
<text x="277.0" y="274.5" font-size="12" text-anchor="middle">388.48</text>
<text x="277.0" y="450.0" font-size="11" text-anchor="middle" class="muted">brisk</text>
<rect x="346.0" y="364.2" width="98" height="65.8" fill="#2563eb" rx="4"/>
<text x="395.0" y="358.2" font-size="12" text-anchor="middle">171.02</text>
<text x="395.0" y="450.0" font-size="11" text-anchor="middle" class="muted">hybrid</text>
<rect x="464.0" y="112.6" width="98" height="317.4" fill="#2563eb" rx="4"/>
<text x="513.0" y="106.6" font-size="12" text-anchor="middle">824.90</text>
<text x="513.0" y="450.0" font-size="11" text-anchor="middle" class="muted">kaze</text>
<rect x="582.0" y="408.3" width="98" height="21.7" fill="#2563eb" rx="4"/>
<text x="631.0" y="402.3" font-size="12" text-anchor="middle">56.44</text>
<text x="631.0" y="450.0" font-size="11" text-anchor="middle" class="muted">orb</text>
<rect x="700.0" y="331.2" width="98" height="98.8" fill="#2563eb" rx="4"/>
<text x="749.0" y="325.2" font-size="12" text-anchor="middle">256.76</text>
<text x="749.0" y="450.0" font-size="11" text-anchor="middle" class="muted">sift</text>
<rect x="818.0" y="370.6" width="98" height="59.4" fill="#2563eb" rx="4"/>
<text x="867.0" y="364.6" font-size="12" text-anchor="middle">154.26</text>
<text x="867.0" y="450.0" font-size="11" text-anchor="middle" class="muted">template</text>
</svg>