<svg xmlns="http://www.w3.org/2000/svg" width="1160" height="580" viewBox="0 0 1160 580">
<style>text{font-family:-apple-system,BlinkMacSystemFont,Segoe UI,Roboto,Arial,sans-serif;fill:#0f172a} .muted{fill:#475569}</style>
<rect x="0" y="0" width="100%" height="100%" fill="#f8fafc"/>
<text x="580" y="36" font-size="22" text-anchor="middle">Resolution Groups: Misses by Engine</text>
<text x="32" y="260" font-size="14" text-anchor="middle" transform="rotate(-90 32,260)" class="muted">miss count</text>
<line x1="90" y1="70" x2="90" y2="450" stroke="#334155" stroke-width="2"/>
<line x1="90" y1="450" x2="1120" y2="450" stroke="#334155" stroke-width="2"/>
<line x1="90" y1="450.0" x2="1120" y2="450.0" stroke="#e2e8f0" stroke-width="1"/>
<text x="80" y="455.0" font-size="12" text-anchor="end" class="muted">0.0</text>
<line x1="90" y1="374.0" x2="1120" y2="374.0" stroke="#e2e8f0" stroke-width="1"/>
<text x="80" y="379.0" font-size="12" text-anchor="end" class="muted">6.0</text>
<line x1="90" y1="298.0" x2="1120" y2="298.0" stroke="#e2e8f0" stroke-width="1"/>
<text x="80" y="303.0" font-size="12" text-anchor="end" class="muted">12.0</text>
<line x1="90" y1="222.0" x2="1120" y2="222.0" stroke="#e2e8f0" stroke-width="1"/>
<text x="80" y="227.0" font-size="12" text-anchor="end" class="muted">17.9</text>
<line x1="90" y1="146.0" x2="1120" y2="146.0" stroke="#e2e8f0" stroke-width="1"/>
<text x="80" y="151.0" font-size="12" text-anchor="end" class="muted">23.9</text>
<line x1="90" y1="70.0" x2="1120" y2="70.0" stroke="#e2e8f0" stroke-width="1"/>
<text x="80" y="75.0" font-size="12" text-anchor="end" class="muted">29.9</text>
<text x="227.8" y="474.0" font-size="11" text-anchor="middle" class="muted">800x600</text>
<rect x="122.0" y="119.6" width="25.9" height="330.4" fill="#ea580c" rx="3"/>
<text x="135.0" y="115.6" font-size="10" text-anchor="middle">26.00</text>
<rect x="152.9" y="145.0" width="25.9" height="305.0" fill="#a21caf" rx="3"/>
<text x="165.9" y="141.0" font-size="10" text-anchor="middle">24.00</text>
<rect x="183.9" y="221.2" width="25.9" height="228.8" fill="#db2777" rx="3"/>
<text x="196.8" y="217.2" font-size="10" text-anchor="middle">18.00</text>
<rect x="214.8" y="246.7" width="25.9" height="203.3" fill="#7c3aed" rx="3"/>
<text x="227.8" y="242.7" font-size="10" text-anchor="middle">16.00</text>
<rect x="245.7" y="246.7" width="25.9" height="203.3" fill="#9333ea" rx="3"/>
<text x="258.7" y="242.7" font-size="10" text-anchor="middle">16.00</text>
<rect x="276.6" y="272.1" width="25.9" height="177.9" fill="#2563eb" rx="3"/>
<text x="289.6" y="268.1" font-size="10" text-anchor="middle">14.00</text>
<rect x="307.6" y="297.5" width="25.9" height="152.5" fill="#16a34a" rx="3"/>
<text x="320.5" y="293.5" font-size="10" text-anchor="middle">12.00</text>
<text x="479.2" y="474.0" font-size="11" text-anchor="middle" class="muted">1024x768</text>
<rect x="373.5" y="132.3" width="25.9" height="317.7" fill="#ea580c" rx="3"/>
<text x="386.5" y="128.3" font-size="10" text-anchor="middle">25.00</text>
<rect x="404.4" y="195.8" width="25.9" height="254.2" fill="#a21caf" rx="3"/>
<text x="417.4" y="191.8" font-size="10" text-anchor="middle">20.00</text>
<rect x="435.4" y="246.7" width="25.9" height="203.3" fill="#db2777" rx="3"/>
<text x="448.3" y="242.7" font-size="10" text-anchor="middle">16.00</text>
<rect x="466.3" y="284.8" width="25.9" height="165.2" fill="#7c3aed" rx="3"/>
<text x="479.2" y="280.8" font-size="10" text-anchor="middle">13.00</text>
<rect x="497.2" y="284.8" width="25.9" height="165.2" fill="#9333ea" rx="3"/>
<text x="510.2" y="280.8" font-size="10" text-anchor="middle">13.00</text>
<rect x="528.1" y="272.1" width="25.9" height="177.9" fill="#2563eb" rx="3"/>
<text x="541.1" y="268.1" font-size="10" text-anchor="middle">14.00</text>
<rect x="559.1" y="310.2" width="25.9" height="139.8" fill="#16a34a" rx="3"/>
<text x="572.0" y="306.2" font-size="10" text-anchor="middle">11.00</text>
<text x="730.8" y="474.0" font-size="11" text-anchor="middle" class="muted">1280x720</text>
<rect x="625.0" y="119.6" width="25.9" height="330.4" fill="#ea580c" rx="3"/>
<text x="638.0" y="115.6" font-size="10" text-anchor="middle">26.00</text>
<rect x="655.9" y="195.8" width="25.9" height="254.2" fill="#a21caf" rx="3"/>
<text x="668.9" y="191.8" font-size="10" text-anchor="middle">20.00</text>
<rect x="686.9" y="259.4" width="25.9" height="190.6" fill="#db2777" rx="3"/>
<text x="699.8" y="255.4" font-size="10" text-anchor="middle">15.00</text>
<rect x="717.8" y="297.5" width="25.9" height="152.5" fill="#7c3aed" rx="3"/>
<text x="730.7" y="293.5" font-size="10" text-anchor="middle">12.00</text>
<rect x="748.7" y="284.8" width="25.9" height="165.2" fill="#9333ea" rx="3"/>
<text x="761.7" y="280.8" font-size="10" text-anchor="middle">13.00</text>
<rect x="779.6" y="272.1" width="25.9" height="177.9" fill="#2563eb" rx="3"/>
<text x="792.6" y="268.1" font-size="10" text-anchor="middle">14.00</text>
<rect x="810.6" y="297.5" width="25.9" height="152.5" fill="#16a34a" rx="3"/>
<text x="823.5" y="293.5" font-size="10" text-anchor="middle">12.00</text>
<text x="982.2" y="474.0" font-size="11" text-anchor="middle" class="muted">1920x1080</text>
<rect x="876.5" y="208.5" width="25.9" height="241.5" fill="#ea580c" rx="3"/>
<text x="889.5" y="204.5" font-size="10" text-anchor="middle">19.00</text>
<rect x="907.4" y="272.1" width="25.9" height="177.9" fill="#a21caf" rx="3"/>
<text x="920.4" y="268.1" font-size="10" text-anchor="middle">14.00</text>
<rect x="938.4" y="272.1" width="25.9" height="177.9" fill="#db2777" rx="3"/>
<text x="951.3" y="268.1" font-size="10" text-anchor="middle">14.00</text>
<rect x="969.3" y="335.6" width="25.9" height="114.4" fill="#7c3aed" rx="3"/>
<text x="982.2" y="331.6" font-size="10" text-anchor="middle">9.00</text>
<rect x="1000.2" y="284.8" width="25.9" height="165.2" fill="#9333ea" rx="3"/>
<text x="1013.2" y="280.8" font-size="10" text-anchor="middle">13.00</text>
<rect x="1031.1" y="272.1" width="25.9" height="177.9" fill="#2563eb" rx="3"/>
<text x="1044.1" y="268.1" font-size="10" text-anchor="middle">14.00</text>
<rect x="1062.1" y="322.9" width="25.9" height="127.1" fill="#16a34a" rx="3"/>
<text x="1075.0" y="318.9" font-size="10" text-anchor="middle">10.00</text>
<rect x="90" y="536" width="14" height="14" fill="#ea580c" rx="2"/>
<text x="112" y="548" font-size="12" class="muted">orb</text>
<rect x="260" y="536" width="14" height="14" fill="#a21caf" rx="2"/>
<text x="282" y="548" font-size="12" class="muted">akaze</text>
<rect x="430" y="536" width="14" height="14" fill="#db2777" rx="2"/>
<text x="452" y="548" font-size="12" class="muted">brisk</text>
<rect x="600" y="536" width="14" height="14" fill="#7c3aed" rx="2"/>
<text x="622" y="548" font-size="12" class="muted">kaze</text>
<rect x="770" y="536" width="14" height="14" fill="#9333ea" rx="2"/>
<text x="792" y="548" font-size="12" class="muted">sift</text>
<rect x="940" y="536" width="14" height="14" fill="#2563eb" rx="2"/>
<text x="962" y="548" font-size="12" class="muted">template</text>
<rect x="1110" y="536" width="14" height="14" fill="#16a34a" rx="2"/>
<text x="1132" y="548" font-size="12" class="muted">hybrid</text>
</svg>